<svg id="Calque_1" data-name="Calque 1" xmlns="http://www.w3.org/2000/svg" width="537.33" height="202.67" viewBox="0 0 537.33 202.67"><defs><style>.cls-1{fill:#fff}</style></defs><title>logo</title><path class="cls-1" d="M120.89 46c-3.73-3.36-8.33-5.36-16.57-6.6l-10.1-1.5a19.94 19.94 0 0 1-10-4.1 10.59 10.59 0 0 1-3.36-8.23c0-7.85 5.74-13.84 16.19-13.84 7.48 0 13.85 1.62 19.33 6.87l8.62-8.5C117.4 3 109.18 0 97.47 0 79 0 67.82 10.6 67.82 26c0 7.24 2.11 12.85 6.47 17 3.87 3.61 9.6 6.11 16.82 7.1l10.48 1.5c5.23.73 7.47 1.62 9.73 3.73s3.48 5.37 3.48 9.23c0 8.59-6.72 13.58-18.32 13.58-9.11 0-16.2-2-22.69-8.47l-9 8.86c8.47 8.59 18.08 11.71 31.41 11.71 18.57 0 31.89-9.73 31.89-26 0-7.62-2.37-14-7.23-18.21M253.15.75h-33.64V89.5H233V54.61h20.18c17.33 0 28.42-11.48 28.42-26.94S270.48.75 253.15.75zm-.74 41.64H233V12.84h19.43c9.35 0 15.72 5.48 15.72 14.83s-6.4 14.71-15.74 14.71zM204 62.95h-13.54c-2.11 9-8.23 15.2-18.06 15.2a17.71 17.71 0 0 1-13.1-5.35c-4.36-4.74-5.36-9.85-5.36-27.67s1-22.93 5.36-27.67a17.68 17.68 0 0 1 13.1-5.36c9.83 0 15.8 6.23 17.94 15.21H204C200.93 9.6 188.71 0 172.4 0a32.1 32.1 0 0 0-23.32 9.48c-8.74 8.72-8.59 18.56-8.59 35.64s-.15 26.92 8.59 35.65a32.1 32.1 0 0 0 23.32 9.48c16.07 0 28.67-9.61 31.64-27.3M56.71 77.4H13.45V50.73h36.91V38.78H13.45V12.84h43.26V.75H0V89.5h56.71V77.4zM504.5 52.62c7.26-8.88 13.87-16.79 21.1-25.67 1.35-1.62 2.74-3.19 4.15-4.76 2.41-2.54 4.82-5.14 7.28-7.8a1.25 1.25 0 0 0 .3-.88 1.1 1.1 0 0 0-.38-.84 1.06 1.06 0 0 0-.38-.23 1.23 1.23 0 0 0-1 0 3 3 0 0 0-.36.26c-2.31 2.57-4.74 5.06-7.09 7.67-11.27 12-22.24 23-34.32 35.28-9.59 9.68-18.75 19.15-27.49 28.94C456.42 67.82 446.26 51 435 33.13c-2.18-3.76-5.07-6.56-7-9.05-6-7.86-12.64-17-18.09-23.62a1.16 1.16 0 0 0-1.51-.25 1.2 1.2 0 0 0-.4 1.56c.59 1.17 1 2.09 1.47 3a1.2 1.2 0 0 0 0 1.31c8 13.3 12.76 23.73 18.72 35.11a50.92 50.92 0 0 0 4 6c4.74 8.33 9.05 17.37 15.2 26.65 1.7 2.43 4.38 6.12 6.92 9.73a47.23 47.23 0 0 0-11.47-1.64c-2.84.17-4.55 1.18-6.51 1.15a1.2 1.2 0 0 0-.68.21c-.67 0-1.52 0-2.62 0-3.11 0-7.88-.13-14.19-.5-.81-.06-1.62-.09-2.41-.09-5.27 0-10.56 1-15 1.51-5.43.38-10.35 1.09-15.68 1.09h-.6a2 2 0 0 0-.25 0 75.61 75.61 0 0 1-8-.9 1.22 1.22 0 0 0-1.33 1.06 1.2 1.2 0 0 0 1 1.35.24.24 0 0 0 .11 0c10 1.47 19.09 2.5 29.41 3.16 18.14 1.83 34.17 2.08 51.76 4.29a277 277 0 0 0-32.42 47.44c-1.9 3.41-2.58 6.93-3.55 9.43a164.47 164.47 0 0 0-7 25.18 1.21 1.21 0 0 0 2.28.75c.47-1 .85-1.75 1.24-2.47a1.22 1.22 0 0 0 1.07-.81c4.47-12.47 10.31-20.47 16.14-29.66a35.93 35.93 0 0 0 2.9-5.44c4.36-6.78 9.83-13.29 15-21.24 2.47-4.17 3.68-7.45 6.41-11.08a1.31 1.31 0 0 0 .22-.75c1-1.36 2.59-3.5 4.68-6.15 3 4.71 7.28 11.74 12.92 21.2 6.88 11.84 15.69 23.65 22.56 33.49 7.8 10.81 14.73 20.53 22.46 31.3 3.74 5.23 7 10.84 10.5 16.31a1.71 1.71 0 0 0 .14.24 1.26 1.26 0 0 0 1 .54 1.17 1.17 0 0 0 .65-.18 1.24 1.24 0 0 0 .4-1.68c-12.57-20.12-23.89-38.15-36.08-58.94C490 125.4 481 109.75 472 94.2h1.92c1 0 2 0 3-.06a1.2 1.2 0 0 0 1.11-1 1.24 1.24 0 0 0-.64-1.34c-.32-.13-.57-.29-.81-.39a1.22 1.22 0 0 0-.9-1.13c-.87-.24-1.65-.56-2.46-.83 2.65-3.05 5.61-6.41 9-10.1 8-8.62 15.7-18.75 22.23-26.79M179.57 115.2a18.65 18.65 0 0 0-26 0c-4.87 4.84-4.78 10.32-4.78 19.82s-.09 15 4.78 19.82a18.65 18.65 0 0 0 26 0c4.86-4.86 4.71-10.33 4.71-19.82s.15-15.02-4.71-19.82zm-5.68 35.13a10.36 10.36 0 0 1-14.7 0c-2.43-2.63-2.92-5.4-2.92-15.31s.49-12.69 2.92-15.32a10.39 10.39 0 0 1 14.7 0c2.42 2.63 2.9 5.41 2.9 15.32s-.48 12.68-2.9 15.31zm45.72-39.98h-18.7v49.35h7.49v-19.42h11.21c9.65 0 15.81-6.37 15.81-15s-6.16-14.93-15.81-14.93zm-.4 23.15H208.4v-16.44h10.81c5.18 0 8.72 3.06 8.72 8.26s-3.54 8.17-8.72 8.17zm62.35-16.44v-6.71h-31.51v49.35h31.51v-6.74h-24.03v-14.83h20.5v-6.64h-20.5v-14.43h24.03zm-147.46 7.71c0-8.39-6-14.42-15.31-14.42H99.65v49.35h7.49v-20.81h9.36l10.38 20.81h8.74l-11.37-21.84a13 13 0 0 0 9.85-13.09zm-27 7.75v-15.46h11.1c5 0 8.39 2.92 8.39 7.77s-3.41 7.69-8.39 7.69zm-32.61 10.19c0 6.59-4.09 10.68-10.25 10.68s-10.19-4.09-10.19-10.68v-32.36h-7.5v32.71c0 10.19 7.64 17.06 17.69 17.06S82 153.24 82 143.06v-32.71h-7.51zM0 159.7h31.53v-6.74H7.48v-14.83h20.51v-6.64H7.48v-14.43h24.05v-6.71H0v49.35zm270.21 39.19v-19.77h-2.09v21.86h11.36v-2.09h-9.27zm-18.31-20.03a11.22 11.22 0 1 0 11 11.24 11 11 0 0 0-11-11.24zm0 20.35a9.13 9.13 0 1 1 8.92-9.11 8.91 8.91 0 0 1-8.92 9.11zm-25.75-20.35a11.22 11.22 0 1 0 11 11.24 11 11 0 0 0-11-11.24zm0 20.35a9.13 9.13 0 1 1 8.92-9.11 8.91 8.91 0 0 1-8.92 9.11zm-18.28-10.06h-12v-10.03h-2.1v21.86h2.1v-9.87h12v9.87h2.09v-21.86h-2.09v10.03zm-26.35 10.06c-5 0-8.51-4.07-8.51-9.11s3.46-9.15 8.51-9.15a8.84 8.84 0 0 1 6.32 2.64l1.46-1.46a10.73 10.73 0 0 0-7.78-3.27c-6.19 0-10.6 5-10.6 11.24s4.41 11.2 10.6 11.2a10.8 10.8 0 0 0 7.81-3.26l-1.46-1.49a8.82 8.82 0 0 1-6.35 2.66zM161.42 189l-3-.67c-3.08-.7-3.5-2.32-3.5-3.46 0-2.32 2.35-3.87 4.76-3.87 2.7 0 4.77 1.62 4.77 4.16h2.09c0-3.81-3-6.25-6.86-6.25-3.49 0-6.85 2.41-6.85 6 0 1.84.6 4.48 5.14 5.49l3 .67c2.48.57 4.57 1.94 4.16 4.64-.35 1.72-2.06 3.59-5.37 3.59a4.77 4.77 0 0 1-5-4.51h-2.09a6.87 6.87 0 0 0 7.08 6.6c4.51 0 6.92-2.76 7.43-5.3.62-4.28-2.26-6.34-5.76-7.09zm-27.11 0l-3-.67c-3.08-.7-3.49-2.32-3.49-3.46 0-2.32 2.35-3.87 4.76-3.87 2.7 0 4.76 1.62 4.76 4.16h2.09c0-3.81-3-6.25-6.86-6.25-3.49 0-6.86 2.41-6.86 6 0 1.84.6 4.48 5.14 5.49l3 .67c2.48.57 4.57 1.94 4.16 4.64-.35 1.72-2.06 3.59-5.36 3.59a4.77 4.77 0 0 1-5-4.51h-2.09a6.87 6.87 0 0 0 7.08 6.6c4.51 0 6.92-2.76 7.43-5.3.62-4.28-2.26-6.34-5.76-7.09zM116 189l-3-.67c-3.08-.7-3.49-2.32-3.49-3.46 0-2.32 2.35-3.87 4.76-3.87 2.7 0 4.76 1.62 4.76 4.16h2.09c0-3.81-3-6.25-6.86-6.25-3.49 0-6.86 2.41-6.86 6 0 1.84.6 4.48 5.14 5.49l3 .67c2.48.57 4.57 1.94 4.16 4.64-.35 1.72-2.06 3.59-5.36 3.59a4.77 4.77 0 0 1-5-4.51h-2.14a6.87 6.87 0 0 0 7.08 6.6c4.51 0 6.92-2.76 7.43-5.3.63-4.28-2.25-6.34-5.71-7.09zm-22.99 2.3h9.08v-2.09h-9.08v-8h10.38v-2.09H90.92v21.86h12.82v-2.09H93.01v-7.59zm-10.85 6l-11.05-18.18h-2.25v21.86h2.09v-18.31l11.14 18.31h2.16v-21.86h-2.09v18.18zm-22.07-18.18h2.09v21.87h-2.09zM49.14 189l-3-.67c-3.08-.7-3.49-2.32-3.49-3.46 0-2.32 2.35-3.87 4.76-3.87 2.7 0 4.76 1.62 4.76 4.16h2.09c0-3.81-3-6.25-6.85-6.25-3.49 0-6.86 2.41-6.86 6 0 1.84.6 4.48 5.14 5.49l3 .67c2.48.57 4.57 1.94 4.16 4.64-.35 1.72-2.06 3.59-5.37 3.59a4.77 4.77 0 0 1-5-4.51h-2.1a6.87 6.87 0 0 0 7.08 6.6c4.51 0 6.92-2.76 7.43-5.3.63-4.28-2.26-6.34-5.75-7.09zm-15.93 4.59a5.46 5.46 0 0 1-5.65 5.62 5.46 5.46 0 0 1-5.65-5.62v-14.47h-2.1v14.48a7.49 7.49 0 0 0 7.74 7.71 7.49 7.49 0 0 0 7.74-7.71v-14.48h-2.08zM11 189.34c2-.73 2.66-2.73 2.66-4.79 0-3.34-2.16-5.43-5.68-5.43H0V201h8.7a5.86 5.86 0 0 0 6.12-6.12c0-2.43-1.61-5.13-3.82-5.54zm-8.86-8.16h5.61c2.26 0 3.81 1.17 3.81 3.37 0 2-1 3.88-3.33 3.88H2.12zm6.54 17.72H2.12v-8.51h6.42c2.54 0 4.19 2.48 4.19 4.48a4 4 0 0 1-4.07 4.02zM331.48 0h2.72v202.67h-2.72z"/></svg>